PathFileType	4	(X/Y/Z)	RBDS03\RBDS03runT25.trc																																																																																														
DataRate	CameraRate	NumFrames	NumMarkers	Units	OrigDataRate	OrigDataStartFrame	OrigNumFrames																																																																																										
150	150	4	32	mm	150	2250	4500																																																																																										
Frame#	Time	L.ASIS			L.Heel.Bottom			L.Heel.Lateral			L.Heel.Top			L.Iliac.Crest			L.MT1			L.MT5			L.PSIS			L.Shank.Bottom.Lateral			L.Shank.Bottom.Medial			L.Shank.Top.Lateral			L.Shank.Top.Medial			L.Thigh.Bottom.Lateral			L.Thigh.Bottom.Medial			L.Thigh.Top.Lateral			L.Thigh.Top.Medial			R.ASIS			R.MT5			R.Heel.Bottom			R.Heel.Lateral			R.Heel.Top			R.Iliac.Crest			R.MT1			R.PSIS			R.Shank.Bottom.Lateral			R.Shank.Bottom.Medial			R.Shank.Top.Lateral			R.Shank.Top.Medial			R.Thigh.Bottom.Lateral			R.Thigh.Bottom.Medial			R.Thigh.Top.Lateral			R.Thigh.Top.Medial		
		X1	Y1	Z1	X2	Y2	Z2	X3	Y3	Z3	X4	Y4	Z4	X5	Y5	Z5	X6	Y6	Z6	X7	Y7	Z7	X8	Y8	Z8	X9	Y9	Z9	X10	Y10	Z10	X11	Y11	Z11	X12	Y12	Z12	X13	Y13	Z13	X14	Y14	Z14	X15	Y15	Z15	X16	Y16	Z16	X17	Y17	Z17	X18	Y18	Z18	X19	Y19	Z19	X20	Y20	Z20	X21	Y21	Z21	X22	Y22	Z22	X23	Y23	Z23	X24	Y24	Z24	X25	Y25	Z25	X26	Y26	Z26	X27	Y27	Z27	X28	Y28	Z28	X29	Y29	Z29	X30	Y30	Z30	X31	Y31	Z31	X32	Y32	Z32
																																																																																																	
2251	15	2278.6783	1078.436844	911.2271838	2263.920083	33.19730341	978.3113008	2291.441358	50.83506686	928.9981263	2260.976233	83.9278008	974.0507791	2202.558158	1149.589237	872.6417489	2473.809635	116.0635051	1007.58926	2443.846995	85.35355566	905.4745632	2118.365019	1109.63994	988.0425533	2301.72937	195.0920453	913.9523843	2258.761606	191.6192241	947.7908786	2283.750835	271.3918872	897.7254532	2241.109882	269.0511665	931.0800537	2255.905212	634.7953674	890.6062733	2194.591634	631.4760349	931.0543898	2234.070994	740.369666	866.9428832	2173.234056	736.198013	900.8374859	2299.1309	1077.797083	1124.120304	1612.248049	319.1986614	1168.919404	1647.839209	499.97725	1079.553157	1652.459812	468.37361	1133.430223	1692.870737	485.9195458	1092.448634	2252.872504	1162.108581	1162.550082	1644.899436	284.7550316	1063.904154	2129.052789	1111.754262	1071.793212	1751.305057	455.5595951	1157.585939	1745.882191	482.9391071	1114.240752	1826.05727	494.2045613	1170.386299	1815.978691	521.4827006	1125.765364	2157.498062	654.5877774	1185.950295	2094.313938	661.0190546	1148.989867	2160.1922	765.0096457	1197.223326	2100.95086	770.2542157	1162.171731
2252	15.00666667	2276.968502	1073.328131	910.7856226	2252.306057	31.36296446	978.1926404	2280.749513	48.01876722	929.091347	2251.188607	82.05709229	973.9821964	2200.316383	1144.068929	872.8301507	2464.276512	106.796693	1009.065312	2434.280984	77.50948456	906.4869822	2116.583268	1103.454999	988.8117909	2295.109876	190.0934859	913.8136222	2251.925007	187.8161806	947.3610191	2279.272779	266.76515	897.3724691	2236.456758	265.6655647	930.4714753	2258.175598	630.4616136	889.8788396	2196.690135	626.3922862	929.9479801	2235.690419	735.9238636	866.6657775	2174.568773	731.0330354	900.0085399	2298.091092	1072.32313	1123.966683	1610.602033	333.7061004	1171.009809	1656.739448	512.6141397	1082.501718	1659.402052	480.5451518	1136.413898	1700.981309	495.931865	1095.248352	2252.739734	1156.704215	1162.512142	1641.244618	297.8874767	1065.749348	2127.623288	1105.25931	1072.435988	1756.365325	462.4774226	1159.940629	1751.822708	490.0699207	1116.614126	1832.62876	498.0933451	1172.48554	1823.432739	525.7950491	1127.956049	2164.067568	647.3410659	1186.53157	2100.696381	652.7270648	1149.760628	2164.983891	757.7887958	1197.939651	2105.449245	762.0186604	1163.207522
2253	15.01333333	2275.147238	1067.810155	910.4417913	2239.124383	30.02293383	978.3494077	2268.473992	45.75915677	929.5057079	2240.032889	80.66927673	974.4021787	2198.061663	1138.043465	872.9572403	2453.481411	97.01999435	1010.752333	2423.210492	69.81666173	907.6171931	2114.653886	1096.914888	989.4885534	2287.748912	185.1075774	914.1132592	2244.301712	184.2665688	947.2393857	2274.418465	262.1285316	897.3503694	2231.400002	262.5149166	930.0756464	2260.820057	625.9087847	889.1106492	2199.181668	621.054144	928.8163486	2237.533716	731.2013062	866.2317405	2176.162914	725.5555328	899.0634432	2296.889853	1066.472375	1123.815355	1610.711006	347.5446368	1173.292857	1666.601151	524.0954874	1085.397716	1667.456467	491.6923609	1139.388181	1710.001968	504.9786776	1097.910144	2252.331269	1150.874613	1162.487762	1639.178711	310.4492014	1067.726286	2126.00459	1098.419538	1072.976292	1762.378452	468.7356325	1162.213185	1758.716436	496.5427957	1118.947347	1839.972929	501.3407334	1174.568003	1831.688949	529.4571832	1130.143001	2170.821575	639.7692533	1187.101426	2107.193313	644.0628381	1150.711871	2169.916099	750.2059335	1198.682597	2109.992945	753.3797143	1164.45957
2254	15.02	2273.178646	1061.917232	910.2377311	2224.748927	29.21019484	978.7424966	2254.9428	44.17647093	930.2041287	2227.764856	79.79198884	975.2948557	2195.844966	1131.515056	872.9998562	2441.615878	87.25798178	1012.610352	2410.883027	62.75250819	908.8465092	2112.56527	1090.10491	990.0634659	2279.850765	180.3581688	914.8931137	2236.084628	181.1620461	947.4311145	2269.343197	257.6660126	897.6992509	2226.087568	259.7461259	929.899279	2263.686965	621.2213061	888.3593449	2201.928355	615.5767504	927.7402114	2239.462475	726.2864066	865.6696815	2177.894968	719.8731097	898.055767	2295.520565	1060.276853	1123.666456	1612.564035	360.5268655	1175.758199	1677.21598	534.3894526	1088.1866	1676.464613	501.7578619	1142.289305	1719.756708	513.0570036	1100.38829	2251.53707	1144.560839	1162.542928	1638.731029	322.2786479	1069.824744	2124.19251	1091.301087	1073.404942	1769.294651	474.3318147	1164.371429	1766.514401	502.3620536	1121.215641	1848.048559	503.9568658	1176.599726	1840.702869	532.4852951	1132.297962	2177.765266	631.9593211	1187.652583	2113.818349	635.1012716	1151.822568	2174.981639	742.3449546	1199.43327	2114.590019	744.4118024	1165.898235
